<svg xmlns="http://www.w3.org/2000/svg" viewBox="0 0 900 600" role="img" aria-label="Community workshop illustration">
  <defs>
    <linearGradient id="panel-bg" x1="0" y1="0" x2="1" y2="1">
      <stop offset="0%" stop-color="#f4fbff" />
      <stop offset="100%" stop-color="#e6f6ef" />
    </linearGradient>
    <linearGradient id="panel-path" x1="0" y1="0" x2="1" y2="0">
      <stop offset="0%" stop-color="#1d8a6d" />
      <stop offset="100%" stop-color="#3ec49a" />
    </linearGradient>
  </defs>
  <rect width="900" height="600" fill="url(#panel-bg)" rx="48" />
  <circle cx="760" cy="120" r="90" fill="#fdecd6" />
  <circle cx="160" cy="120" r="100" fill="#dfefff" />
  <path d="M0 420 C140 360 300 460 440 420 C600 370 720 470 900 380 L900 600 L0 600 Z" fill="#e3f3eb" />
  <rect x="120" y="200" width="220" height="260" rx="36" fill="#ffffff" stroke="#e1ecff" stroke-width="4" />
  <rect x="170" y="240" width="140" height="28" rx="14" fill="#1d8a6d" opacity="0.4" />
  <rect x="150" y="320" width="180" height="24" rx="12" fill="#f79d4f" opacity="0.6" />
  <rect x="460" y="180" width="320" height="320" rx="40" fill="#ffffff" stroke="#d5eee4" stroke-width="4" />
  <path d="M520 420 C520 360 620 330 640 380 C660 330 760 360 760 420 C760 510 640 560 640 560 C640 560 520 510 520 420 Z" fill="#f79d4f" opacity="0.8" />
  <rect x="500" y="220" width="260" height="40" rx="20" fill="#f3faf6" />
  <rect x="530" y="235" width="150" height="16" rx="8" fill="#1d8a6d" opacity="0.4" />
  <path d="M160 420 C200 380 280 380 320 420" stroke="url(#panel-path)" stroke-width="18" stroke-linecap="round" />
  <circle cx="640" cy="320" r="40" fill="#1d8a6d" opacity="0.15" />
  <circle cx="580" cy="320" r="20" fill="#f79d4f" opacity="0.8" />
  <circle cx="700" cy="320" r="20" fill="#f79d4f" opacity="0.8" />
</svg>
