<svg xmlns="http://www.w3.org/2000/svg" viewBox="0 0 1200 800" role="img" aria-label="Mobile health clinic illustration">
  <defs>
    <linearGradient id="health-bg" x1="0" y1="0" x2="1" y2="1">
      <stop offset="0%" stop-color="#eefcff" />
      <stop offset="100%" stop-color="#e3f5f0" />
    </linearGradient>
  </defs>
  <rect width="1200" height="800" fill="url(#health-bg)" rx="40" />
  <circle cx="1020" cy="140" r="110" fill="#fee4d3" />
  <circle cx="200" cy="160" r="120" fill="#d9f0ff" />
  <path d="M0 540 C220 460 420 580 640 520 C860 460 1080 600 1200 480 L1200 800 L0 800 Z" fill="#e1f3ec" />
  <rect x="180" y="240" width="360" height="340" rx="48" fill="#ffffff" stroke="#dff1ff" stroke-width="4" />
  <rect x="660" y="220" width="360" height="360" rx="50" fill="#ffffff" stroke="#d1eee4" stroke-width="4" />
  <rect x="220" y="320" width="280" height="80" rx="32" fill="#f3fbff" />
  <rect x="250" y="348" width="180" height="24" rx="12" fill="#1d8a6d" opacity="0.4" />
  <rect x="220" y="430" width="300" height="140" rx="36" fill="#fef7f2" />
  <rect x="260" y="460" width="80" height="80" rx="18" fill="#f48b3c" opacity="0.6" />
  <rect x="360" y="460" width="80" height="80" rx="18" fill="#1d8a6d" opacity="0.4" />
  <rect x="700" y="300" width="280" height="200" rx="44" fill="#fefefe" />
  <path d="M740 360 L820 360 L820 320 L860 320 L860 360 L940 360 L940 400 L860 400 L860 440 L820 440 L820 400 L740 400 Z" fill="#1d8a6d" opacity="0.8" />
  <circle cx="940" cy="520" r="70" fill="#1d8a6d" opacity="0.15" />
  <circle cx="720" cy="520" r="50" fill="#f48b3c" opacity="0.4" />
</svg>
