<svg xmlns="http://www.w3.org/2000/svg" viewBox="0 0 1200 800" role="img" aria-label="Livelihoods training illustration">
  <defs>
    <linearGradient id="livelihoods-bg" x1="0" y1="0" x2="1" y2="1">
      <stop offset="0%" stop-color="#fdf6e9" />
      <stop offset="100%" stop-color="#e6f6f0" />
    </linearGradient>
  </defs>
  <rect width="1200" height="800" fill="url(#livelihoods-bg)" rx="40" />
  <circle cx="190" cy="150" r="120" fill="#dfefff" />
  <circle cx="1030" cy="150" r="110" fill="#fde5cf" />
  <path d="M0 520 C220 460 420 580 640 520 C860 460 1080 600 1200 480 L1200 800 L0 800 Z" fill="#e0f3ea" />
  <rect x="200" y="240" width="360" height="340" rx="46" fill="#ffffff" stroke="#f4eada" stroke-width="4" />
  <rect x="660" y="240" width="360" height="320" rx="46" fill="#ffffff" stroke="#d3ede3" stroke-width="4" />
  <rect x="240" y="280" width="260" height="60" rx="28" fill="#fff6ef" />
  <rect x="270" y="300" width="180" height="20" rx="10" fill="#f48b3c" />
  <rect x="220" y="380" width="300" height="180" rx="36" fill="#f3faf7" />
  <path d="M260 520 Q320 440 380 520 T500 520" fill="none" stroke="#1d8a6d" stroke-width="16" stroke-linecap="round" />
  <rect x="700" y="300" width="280" height="80" rx="32" fill="#f9fef9" />
  <rect x="740" y="326" width="160" height="28" rx="14" fill="#1d8a6d" opacity="0.4" />
  <rect x="660" y="420" width="340" height="140" rx="36" fill="#fef4e6" />
  <rect x="700" y="450" width="80" height="80" rx="18" fill="#f48b3c" opacity="0.6" />
  <rect x="800" y="450" width="80" height="80" rx="18" fill="#1d8a6d" opacity="0.5" />
  <rect x="900" y="450" width="80" height="80" rx="18" fill="#30b08b" opacity="0.5" />
</svg>
