<svg xmlns="http://www.w3.org/2000/svg" viewBox="0 0 1200 800" role="img" aria-label="Youth education illustration">
  <defs>
    <linearGradient id="youth-bg" x1="0" y1="0" x2="1" y2="1">
      <stop offset="0%" stop-color="#edf7ff" />
      <stop offset="100%" stop-color="#e6f8f1" />
    </linearGradient>
  </defs>
  <rect width="1200" height="800" fill="url(#youth-bg)" rx="40" />
  <circle cx="200" cy="160" r="120" fill="#d9ebff" />
  <circle cx="1040" cy="120" r="90" fill="#fbe8cf" />
  <path d="M0 520 C220 460 440 580 640 520 C860 460 1080 600 1200 480 L1200 800 L0 800 Z" fill="#e2f3ea" />
  <rect x="200" y="240" width="360" height="320" rx="44" fill="#ffffff" stroke="#dfefff" stroke-width="4" />
  <rect x="640" y="220" width="360" height="360" rx="48" fill="#ffffff" stroke="#daf0e6" stroke-width="4" />
  <rect x="240" y="280" width="280" height="80" rx="32" fill="#f5fbff" />
  <rect x="270" y="308" width="180" height="24" rx="12" fill="#1d8a6d" opacity="0.4" />
  <rect x="240" y="400" width="300" height="30" rx="15" fill="#f48b3c" opacity="0.6" />
  <rect x="680" y="280" width="280" height="60" rx="30" fill="#fdf4e9" />
  <rect x="700" y="300" width="160" height="20" rx="10" fill="#f48b3c" />
  <rect x="640" y="370" width="360" height="180" rx="44" fill="#f6fbf8" />
  <circle cx="720" cy="460" r="60" fill="#1d8a6d" opacity="0.12" />
  <circle cx="840" cy="460" r="60" fill="#1d8a6d" opacity="0.12" />
  <circle cx="960" cy="460" r="60" fill="#1d8a6d" opacity="0.12" />
  <rect x="700" y="420" width="80" height="80" rx="24" fill="#1d8a6d" opacity="0.35" />
  <rect x="820" y="420" width="80" height="80" rx="24" fill="#f48b3c" opacity="0.5" />
  <rect x="940" y="420" width="80" height="80" rx="24" fill="#30b08b" opacity="0.4" />
</svg>
