<svg xmlns="http://www.w3.org/2000/svg" viewBox="0 0 1200 800" role="img" aria-label="Women cooperative illustration">
  <defs>
    <linearGradient id="women-bg" x1="0" y1="0" x2="1" y2="1">
      <stop offset="0%" stop-color="#fef0fd" />
      <stop offset="100%" stop-color="#e6f6f1" />
    </linearGradient>
    <linearGradient id="women-circle" x1="0" y1="0" x2="1" y2="1">
      <stop offset="0%" stop-color="#f48b3c" />
      <stop offset="100%" stop-color="#f26d7d" />
    </linearGradient>
  </defs>
  <rect width="1200" height="800" fill="url(#women-bg)" rx="40" />
  <circle cx="1040" cy="140" r="100" fill="#fce0f6" />
  <circle cx="200" cy="160" r="110" fill="#dff5ee" />
  <path d="M0 540 C220 480 420 600 640 540 C860 480 1080 620 1200 520 L1200 800 L0 800 Z" fill="#ecf7f2" />
  <rect x="200" y="260" width="320" height="320" rx="46" fill="#ffffff" stroke="#f6d0e8" stroke-width="4" />
  <rect x="680" y="220" width="320" height="360" rx="48" fill="#ffffff" stroke="#dfeee6" stroke-width="4" />
  <path d="M260 320 L460 320" stroke="#1d8a6d" stroke-width="14" stroke-linecap="round" />
  <path d="M260 360 L420 360" stroke="#f48b3c" stroke-width="14" stroke-linecap="round" />
  <circle cx="360" cy="500" r="80" fill="url(#women-circle)" opacity="0.85" />
  <path d="M700 440 C700 380 760 360 780 390 C800 360 860 380 860 440 C860 520 780 580 780 580 C780 580 700 520 700 440 Z" fill="#f48b3c" opacity="0.8" />
  <path d="M900 440 C900 380 960 360 980 390 C1000 360 1060 380 1060 440 C1060 520 980 580 980 580 C980 580 900 520 900 440 Z" fill="#1d8a6d" opacity="0.6" />
  <rect x="720" y="280" width="220" height="80" rx="32" fill="#fdf5fb" />
  <rect x="760" y="308" width="140" height="24" rx="12" fill="#f48b3c" opacity="0.6" />
</svg>
